# xmcd
#
# Track frame offsets:
#	150
#	12011
#	29531
#	40651
#	53664
#	66216
#	77074
#	93009
#	107113
#	129625
#	151004
#	164350
#	174584
#	181136
#
# Disc length: 2571 seconds
#
# Revision: 0
# Processed by: cddbd v1.5.1PL2 Copyright (c) Steve Scherf et al.
# Submitted via: dBpowerAMP V4.0
#
DISCID=a10a090e
DTITLE=Francisco Frias - Sonhando o Brasil
DYEAR=1900
DGENRE=Folk
TTITLE0=Jogo da Bola
TTITLE1=Dona Judith
TTITLE2=Paz
TTITLE3=Para Alina
TTITLE4=Fantazia
TTITLE5=Manhã de carnaval
TTITLE6=Felicidade
TTITLE7=Débora
TTITLE8=Back to Brasil
TTITLE9=Valsa-choro
TTITLE10=Scottisch-choro
TTITLE11=Se ela Perguntar
TTITLE12=Magoado
TTITLE13=Tempo de Criança
EXTD=
EXTT0=
EXTT1=
EXTT2=
EXTT3=
EXTT4=
EXTT5=
EXTT6=
EXTT7=
EXTT8=
EXTT9=
EXTT10=
EXTT11=
EXTT12=
EXTT13=
PLAYORDER=
